<svg width="40" height="40" viewBox="0 0 40 40" fill="none" xmlns="http://www.w3.org/2000/svg">
<rect width="40" height="40" rx="20" fill="#ECF4FB"/>
<path d="M20.1359 10.2501C14.6525 10.176 10.1759 14.6526 10.25 20.136C10.3231 25.3949 14.6051 29.6769 19.8641 29.7501C25.3484 29.8251 29.8241 25.3485 29.7491 19.8651C29.6769 14.6052 25.3948 10.3232 20.1359 10.2501ZM24.4531 16.2144L20.5981 24.9576C20.3736 25.4483 19.6241 25.2857 19.6241 24.7438V20.5626C19.6241 20.5128 19.6043 20.4651 19.5691 20.43C19.534 20.3948 19.4863 20.3751 19.4366 20.3751H15.2562C14.7162 20.3751 14.5531 19.6311 15.042 19.4061L23.7856 15.5469C23.879 15.5038 23.9834 15.4903 24.0847 15.5084C24.186 15.5264 24.2794 15.5751 24.3521 15.6479C24.4249 15.7207 24.4736 15.814 24.4916 15.9153C24.5097 16.0166 24.4963 16.121 24.4531 16.2144Z" fill="#1B3C5C"/>
</svg>
